<?xml version="1.0" encoding="UTF-8"?>
<svg version="1.1" xmlns="http://www.w3.org/2000/svg" width="500" height="500">
<path d="M0 0 C165 0 330 0 500 0 C500 165 500 330 500 500 C335 500 170 500 0 500 C0 335 0 170 0 0 Z " fill="#014421" transform="translate(0,0)"/>
<path d="M0 0 C2.78823237 1.28923981 4.98996602 2.68619531 7.28515625 4.72265625 C7.89238525 5.25640869 8.49961426 5.79016113 9.12524414 6.34008789 C9.76453857 6.90848389 10.40383301 7.47687988 11.0625 8.0625 C12.41562113 9.25119122 13.7697935 10.43868682 15.125 11.625 C15.78757812 12.20507812 16.45015625 12.78515625 17.1328125 13.3828125 C19.56937304 15.49313899 22.05722858 17.53442314 24.5625 19.5625 C28.77198715 22.97137147 32.89757094 26.46403364 37 30 C42.01171583 34.31820272 47.08218579 38.54906846 52.21875 42.71875 C55.36383753 45.29842854 58.46481088 47.92630334 61.5625 50.5625 C66.95663958 55.15056346 72.43694781 59.61736972 78 64 C82.69690558 62.55279847 85.67743225 59.78915797 89.125 56.4375 C93.94641777 51.86729702 98.88185111 47.56644089 104.0625 43.40234375 C107.55942882 40.5424884 110.9691758 37.59224115 114.375 34.625 C123.91437346 26.32122784 133.52334395 18.10457353 143.359375 10.15234375 C145.18068591 8.66781371 146.98179171 7.15826614 148.765625 5.62890625 C150.08820313 4.51322266 150.08820313 4.51322266 151.4375 3.375 C152.21996094 2.70210938 153.00242187 2.02921875 153.80859375 1.3359375 C156 0 156 0 157.93164062 0.25244141 C160.20539999 1.07423687 161.49121074 2.01580049 163.28515625 3.625 C163.89230469 4.16189453 164.49945313 4.69878906 165.125 5.25195312 C165.764375 5.82880859 166.40375 6.40566406 167.0625 7 C168.41689906 8.19912595 169.77237336 9.39703851 171.12890625 10.59375 C171.79164551 11.18027344 172.45438477 11.76679687 173.13720703 12.37109375 C175.54340672 14.47517819 178.01149764 16.49422967 180.5 18.5 C184.91669155 22.07541697 189.21776874 25.76603141 193.5 29.5 C198.67158136 34.00812617 203.90228153 38.41992411 209.234375 42.73828125 C213.03026392 45.84254634 216.76612687 49.01567667 220.49853516 52.19580078 C223.62294048 54.85355504 226.78368296 57.45424353 230 60 C228.5660468 63.50521893 226.90954253 65.00344591 223.8125 67.125 C214.32020868 74.32027852 207.61113892 86.30697033 205.43930054 98.02529907 C204.88642057 103.02764335 204.82825468 107.96061297 204.80712891 112.98974609 C204.79895142 114.07536835 204.79077393 115.1609906 204.78234863 116.2795105 C204.75760575 119.86081407 204.74100315 123.44207817 204.7265625 127.0234375 C204.72123882 128.25351154 204.71591515 129.48358559 204.71043015 130.7509346 C204.68648684 136.59700437 204.66724422 142.44305815 204.6544081 148.28916299 C204.64088546 154.32495221 204.61466605 160.36036844 204.56787109 166.39599609 C204.51827215 172.9010216 204.49374769 179.40570127 204.48667526 185.91090775 C204.48000705 188.3753805 204.4649025 190.8398469 204.44078445 193.30421066 C204.26026617 212.87233874 205.44058079 230.27454608 218.4375 245.9375 C218.953125 246.618125 219.46875 247.29875 220 248 C218.76145489 251.71563534 217.30982822 252.59458591 214.25 255 C213.25484375 255.7940625 212.2596875 256.588125 211.234375 257.40625 C210.70521484 257.82777344 210.17605469 258.24929688 209.63085938 258.68359375 C206.87810513 260.90557741 204.19163339 263.20469057 201.5 265.5 C197.57659189 268.83679476 193.62736487 272.13272816 189.625 275.375 C185.1482589 279.01521138 180.78487527 282.77013187 176.4375 286.5625 C168.89620425 293.13231672 161.34759639 299.46890672 153 305 C153.00222061 303.73771261 153.00444122 302.47542522 153.00672913 301.1748867 C153.05765482 271.213011 153.06737824 241.25143115 153.02634037 211.28955349 C153.02132571 207.60205295 153.01665888 203.91455204 153.01220703 200.22705078 C153.0113149 199.49293341 153.01042277 198.75881604 153.0095036 198.00245269 C152.99588636 186.11449108 153.01044787 174.22672243 153.03541696 162.33878641 C153.06040921 150.14130264 153.05513394 137.944103 153.02174091 125.74663794 C153.00208843 118.21949148 153.00606569 110.69311807 153.04023629 103.16602035 C153.06390688 97.39487741 153.04547207 91.6244629 153.01126289 85.85340118 C153.00383443 83.48546468 153.010115 81.11744008 153.03101921 78.7495842 C153.05750633 75.51856945 153.03493926 72.29148778 153 69.06063843 C153.01941178 68.1209422 153.03882357 67.18124596 153.05882359 66.21307409 C152.97161871 62.30982799 152.90658335 59.95800428 150.15234375 57.04754567 C148.16051615 55.540003 146.17876871 54.21819601 144 53 C140.60878518 54.6261574 137.9626055 56.52583332 135.0625 58.9375 C134.09570312 59.73929688 133.12890625 60.54109375 132.1328125 61.3671875 C124.92542159 67.38013333 124.92542159 67.38013333 117.85028267 73.54568863 C116 75 116 75 113.51933098 76.29192734 C109.7905724 78.5001615 106.68751859 80.64104157 105.42249346 84.98149395 C104.4594676 91.27681425 104.7050941 97.65650666 104.80126953 104.00488281 C104.79753967 106.1639163 104.78946259 108.32294599 104.77737427 110.48194885 C104.75743688 116.33614014 104.79974648 122.18839219 104.85433435 128.04230213 C104.90205898 134.1772309 104.89610504 140.31212326 104.89694214 146.44720459 C104.90619684 156.75371022 104.95345934 167.05947673 105.02587891 177.36572266 C105.10925687 189.26275277 105.14450362 201.1591169 105.1511184 213.05642247 C105.15833414 225.74189491 105.1961163 238.42712937 105.24535894 251.1125021 C105.25778477 254.75748988 105.26507734 258.40245951 105.27142715 262.04746246 C105.28328323 267.7899758 105.31605997 273.5320195 105.36463547 279.27433586 C105.37943979 281.37526502 105.38765442 283.47625316 105.38859558 285.57723427 C105.40113751 299.80045875 105.66337664 313.05533997 116 324 C118.25242322 326.11193002 120.56693793 328.09962016 123 330 C116.14476792 337.0763686 108.62033519 343.36135483 100.9765625 349.5625 C97.11230539 352.72693102 93.30458032 355.95539522 89.50292969 359.19458008 C86.37801531 361.85271649 83.21681591 364.45384866 80 367 C76.08273661 365.34814194 73.10911994 362.69575715 69.9375 359.9375 C68.77018032 358.93544131 67.60220174 357.93414971 66.43359375 356.93359375 C65.85335449 356.43585449 65.27311523 355.93811523 64.67529297 355.42529297 C62.3120876 353.41474314 59.90856471 351.45585357 57.5 349.5 C53.32446081 346.09702753 49.1814691 342.65854137 45.0625 339.1875 C44.51851563 338.73117187 43.97453125 338.27484375 43.4140625 337.8046875 C40.4754119 335.32039185 37.67562717 332.76588929 35 330 C35.66386719 329.46632813 36.32773438 328.93265625 37.01171875 328.3828125 C45.37248921 321.328031 51.1317742 313.10258639 52.19847476 301.91916609 C52.2884847 299.55860676 52.31935105 297.20449385 52.32798767 294.84222412 C52.33886888 293.9415393 52.34975008 293.04085448 52.36096102 292.11287618 C52.39459309 289.10618828 52.41409844 286.09958531 52.43334961 283.09277344 C52.45407607 280.93226996 52.47548102 278.77177291 52.49751282 276.61128235 C52.56529138 269.52739822 52.61091188 262.44345634 52.65234375 255.359375 C52.65958694 254.15282037 52.66683012 252.94626574 52.6742928 251.70314884 C52.7414669 240.31900005 52.79959583 228.93483353 52.83782101 217.55054855 C52.88732244 203.00559177 52.98013723 188.46233799 53.13173288 173.91807723 C53.23480977 163.68091983 53.28799567 153.44422314 53.3044911 143.20656419 C53.31569513 137.09598998 53.34879625 130.98737973 53.43562126 124.87737274 C53.51629125 119.12766878 53.53501532 113.3810194 53.50698662 107.63084984 C53.50736853 105.52611156 53.52985609 103.42123797 53.57658768 101.31701851 C54.18303114 89.54680538 54.18303114 89.54680538 49.20245552 79.39902496 C46.0553439 76.49645664 42.61612291 74.27864768 39 72 C37.10485032 70.48317147 35.22597139 68.94543498 33.375 67.375 C32.49457031 66.66214844 31.61414063 65.94929688 30.70703125 65.21484375 C28.78989512 63.64627782 26.89330824 62.05244039 25.01171875 60.44140625 C24.03847656 59.61511719 23.06523437 58.78882813 22.0625 57.9375 C21.18722656 57.18339844 20.31195313 56.42929688 19.41015625 55.65234375 C16.93717392 53.62303305 16.93717392 53.62303305 13 54 C10.11650533 55.13291873 8.01597487 56.6457444 6 59 C4.9739314 62.32149555 5.06002378 65.52307228 5.12025452 68.97834778 C5.10515773 70.49771211 5.10515773 70.49771211 5.08975595 72.04777068 C5.06448703 75.44640413 5.08915494 78.84284181 5.11352539 82.24145508 C5.10563878 84.67567074 5.09467943 87.10987811 5.08087158 89.54406738 C5.05805557 94.78687837 5.05664269 100.02923245 5.07469368 105.27204323 C5.10075508 112.85217983 5.08822317 120.4318671 5.06630235 128.01199885 C5.03178362 140.31038242 5.02843248 152.60856886 5.04467773 164.90698242 C5.06039076 176.85299577 5.06142752 188.79886185 5.04272461 200.74487305 C5.04157668 201.48134734 5.04042875 202.21782163 5.03924603 202.97661332 C5.03339659 206.67132617 5.0272586 210.36603847 5.02097714 214.0607506 C4.96924769 244.70721741 4.96861762 275.35349902 5 306 C3.73776332 305.06154537 2.47667768 304.12154247 1.21606445 303.1809082 C0.51367142 302.65761429 -0.18872162 302.13432037 -0.91239929 301.59516907 C-3.986221 299.24641277 -6.8993304 296.73068991 -9.8125 294.1875 C-13.97457794 290.58502918 -18.15729091 287.0249975 -22.4375 283.5625 C-27.53782547 279.42364973 -32.48799933 275.12677125 -37.4375 270.81030273 C-42.06796235 266.78172947 -46.77708397 262.87467825 -51.546875 259.01171875 C-55.10645035 256.09264024 -58.56348233 253.06234096 -62 250 C-60.30897085 246.39013467 -58.20056635 243.11038734 -56.0625 239.75 C-49.14613461 228.65593305 -47.85753182 219.15175938 -47.80712891 206.30419922 C-47.79895142 205.1438768 -47.79077393 203.98355438 -47.78234863 202.78807068 C-47.75760173 198.9602814 -47.74100593 195.13252895 -47.7265625 191.3046875 C-47.72123882 189.99239292 -47.71591515 188.68009834 -47.71043015 187.32803726 C-47.68882784 181.808473 -47.67009639 176.28891145 -47.65880775 170.76931572 C-47.64259721 162.89926856 -47.60946016 155.0297171 -47.55240691 147.15985668 C-47.51352067 141.60371995 -47.49415318 136.04771476 -47.48888719 130.49144566 C-47.48525913 127.18378802 -47.47094984 123.87677786 -47.44078445 120.56924057 C-46.89242024 101.61270786 -46.89242024 101.61270786 -53 84 C-53.53709343 82.9884359 -53.53709343 82.9884359 -54.08503723 81.95643616 C-58.1906283 74.76073935 -63.3679086 69.2990835 -70.12890625 64.5859375 C-70.74636719 64.06257813 -71.36382812 63.53921875 -72 63 C-72 62.01 -72 61.02 -72 60 C-70.0859375 58.16015625 -70.0859375 58.16015625 -67.375 56.0625 C-66.37210937 55.26972656 -65.36921875 54.47695312 -64.3359375 53.66015625 C-63.79420898 53.23234863 -63.25248047 52.80454102 -62.69433594 52.36376953 C-59.73453387 49.98142741 -56.87247834 47.48629923 -54 45 C-49.87618355 41.44450503 -45.72788095 37.93204454 -41.5 34.5 C-37.31916708 31.10383954 -33.20877297 27.63647469 -29.125 24.125 C-28.5369458 23.6194458 -27.9488916 23.1138916 -27.34301758 22.59301758 C-26.15296661 21.56969423 -24.96294384 20.54633809 -23.77294922 19.52294922 C-15.98724508 12.83509155 -8.18658061 6.19810884 0 0 Z " fill="#FEBC58" transform="translate(166,67)"/>
<path d="M0 0 C6.08063174 4.34330838 11.6778212 9.13478291 17.29711914 14.04760742 C20.98168576 17.26424913 24.69614983 20.42394179 28.5 23.5 C32.91669155 27.07541697 37.21776874 30.76603141 41.5 34.5 C45.82643374 38.2714014 50.17184149 42.00275153 54.625 45.625 C55.90697266 46.66914062 55.90697266 46.66914062 57.21484375 47.734375 C58.71896227 48.95792162 60.22356946 50.18087368 61.73095703 51.40039062 C63.55719262 52.88314428 65.37298454 54.37793848 67.1875 55.875 C67.76516113 56.33986816 68.34282227 56.80473633 68.93798828 57.28369141 C70.34953396 58.45647243 71.68258878 59.72238339 73 61 C73 61.99 73 62.98 73 64 C71.49609375 65.32421875 71.49609375 65.32421875 69.4375 66.6875 C59.11471163 74.18013901 51.18208392 86.28857102 49 99 C48.90964339 100.67762858 48.86538719 102.35817327 48.85955811 104.03822327 C48.85384796 105.029039 48.84813782 106.01985474 48.84225464 107.04069519 C48.84113678 108.11660416 48.84001892 109.19251312 48.83886719 110.30102539 C48.83390228 111.44315491 48.82893738 112.58528442 48.82382202 113.76202393 C48.80921829 117.54057418 48.80240029 121.31908241 48.796875 125.09765625 C48.79112079 127.72977194 48.78536309 130.36188762 48.77960205 132.9940033 C48.77003714 137.81067047 48.76413686 142.62732862 48.7611053 147.44400412 C48.75663468 154.50629174 48.73912997 161.56838485 48.7101047 168.63061339 C48.6857621 174.76925573 48.67815502 180.90781867 48.67642975 187.04650688 C48.67341375 189.64626561 48.66542105 192.24602373 48.65224457 194.84575081 C48.63507313 198.49505194 48.63709193 202.14388708 48.64355469 205.79321289 C48.6343399 206.85495224 48.62512512 207.91669159 48.6156311 209.01060486 C48.70190661 224.66578751 54.18017377 237.92992083 64 250 C56.3528576 256.67705956 48.68896441 263.30686884 40.80078125 269.69921875 C37.53670217 272.38058916 34.3274928 275.12062863 31.125 277.875 C30.53541504 278.38208496 29.94583008 278.88916992 29.33837891 279.41162109 C28.74847168 279.91902832 28.15856445 280.42643555 27.55078125 280.94921875 C22.06382827 285.6683882 16.54402008 290.34804098 11 295 C10.48211914 295.43538086 9.96423828 295.87076172 9.43066406 296.31933594 C7.9369215 297.57181787 6.43731472 298.81729574 4.9375 300.0625 C4.08027344 300.77535156 3.22304688 301.48820312 2.33984375 302.22265625 C0.27593406 303.79040068 -1.64122325 304.94862838 -4 306 C-5.54504505 301.19319319 -5.54504505 301.19319319 -5 298 C-2.94605036 295.67186973 -0.67625472 294.06376212 1.8515625 292.26171875 C5.39944657 289.71305265 8.65040166 286.93336754 11.9375 284.0625 C16.94000803 279.74102149 22.00967964 275.51947693 27.14453125 271.35546875 C30.53631812 268.55759258 33.86131405 265.68772256 37.1875 262.8125 C41.98875587 258.66590168 46.84765221 254.70969041 52 251 C51.03549763 248.18686809 50.09550212 246.11526118 48.1875 243.8125 C36.02496957 228.17496087 36.42054256 209.84649674 36.5390625 191.046875 C36.54145133 188.53493342 36.54235132 186.02299003 36.5418396 183.51104736 C36.54534994 177.6017481 36.56798647 171.69275006 36.59884012 165.7835362 C36.62536105 160.41757346 36.63021003 155.05177509 36.6289078 149.68575549 C36.62768173 143.84126138 36.63815985 137.99685172 36.65449142 132.1523819 C36.66082907 129.68216697 36.66479117 127.21194471 36.66627884 124.74172211 C36.67064021 121.2869978 36.68820018 117.83258615 36.70947266 114.37792969 C36.7081131 112.86587448 36.7081131 112.86587448 36.70672607 111.32327271 C36.85258895 95.03157781 42.57052117 80.79677778 54 69 C56.56103658 66.81983553 59.18620146 64.84094266 62 63 C60.76661202 59.29983605 59.36179556 58.45296966 56.3125 56.0625 C51.79520829 52.45921284 47.37127637 48.77892676 43 45 C38.87593982 41.4447757 34.72789291 37.93205424 30.5 34.5 C25.71501238 30.61307457 21.02712139 26.62414911 16.35620117 22.60180664 C11.65707768 18.55578824 6.92745437 14.54737682 2.17431641 10.56494141 C-0.31925906 8.46613563 -2.74883062 6.35947306 -5 4 C-3.35 2.68 -1.7 1.36 0 0 Z " fill="#527E64" transform="translate(333,66)"/>
<path d="M0 0 C2.475 0.99 2.475 0.99 5 2 C5 5 5 5 3.19921875 6.9453125 C2.37035156 7.66460937 1.54148437 8.38390625 0.6875 9.125 C-0.22644531 9.92035156 -1.14039063 10.71570313 -2.08203125 11.53515625 C-15.12279768 22.55085052 -15.12279768 22.55085052 -18.44081974 24.24976063 C-22.17780167 26.47362377 -25.30531089 28.6280083 -26.58052135 32.98216987 C-27.54731124 39.27106009 -27.3058471 45.64632123 -27.21459961 51.98901367 C-27.21996762 54.14642779 -27.22966688 56.30383483 -27.24336243 58.46121216 C-27.26756804 64.3113126 -27.22937226 70.15950125 -27.17859721 76.00937057 C-27.13459643 82.1411778 -27.14348404 88.27292851 -27.145401 94.40486145 C-27.14071992 104.70716209 -27.09734251 115.00872594 -27.02905273 125.31079102 C-26.95053088 137.19990759 -26.9240588 149.08821636 -26.9277305 160.97757357 C-26.93111679 173.6573985 -26.89634901 186.33691434 -26.85049748 199.01664567 C-26.83987181 202.65835333 -26.83629575 206.30001067 -26.8343029 209.94173241 C-26.82925364 215.68186136 -26.79851273 221.42132077 -26.74847221 227.16122818 C-26.73395406 229.26011995 -26.72769857 231.35908883 -26.73060989 233.45802879 C-26.74324844 248.1262088 -25.91331751 261.86786911 -15 273 C-13.05354171 274.55627986 -11.17287292 275.75835833 -9 277 C-10.58350814 281.35723482 -13.97939007 283.82291549 -17.4375 286.6875 C-18.06712646 287.21786865 -18.69675293 287.7482373 -19.34545898 288.29467773 C-23.92509285 292.14129182 -28.54929545 295.93404121 -33.19921875 299.6953125 C-35.29035396 301.41605138 -37.34926308 303.15593543 -39.39453125 304.9296875 C-39.97323975 305.42911865 -40.55194824 305.9285498 -41.14819336 306.44311523 C-42.26969542 307.41366721 -43.38668528 308.38946686 -44.49829102 309.37133789 C-47.51207825 311.97288631 -50.20149605 313.77354577 -54 315 C-55.65 313.68 -57.3 312.36 -59 311 C-58.16082031 310.34257813 -58.16082031 310.34257813 -57.3046875 309.671875 C-51.47751859 305.06260313 -45.8157136 300.2975239 -40.19506836 295.44018555 C-36.66793519 292.40128364 -33.09450024 289.4455896 -29.4375 286.5625 C-26.0474168 283.88729431 -22.95263629 281.1494787 -20 278 C-20.66386719 277.46632813 -21.32773437 276.93265625 -22.01171875 276.3828125 C-30.37730955 269.32396362 -36.1201431 261.10609503 -37.20082867 249.92151999 C-37.29429244 247.56475258 -37.32893482 245.21427979 -37.34144592 242.85568237 C-37.35373826 241.95640868 -37.3660306 241.05713499 -37.37869543 240.13061059 C-37.41699623 237.1286053 -37.44119127 234.12666374 -37.46508789 231.12451172 C-37.48909021 228.96725262 -37.51373941 226.81000063 -37.53898621 224.65275574 C-37.61709308 217.57850983 -37.67263539 210.50418196 -37.72265625 203.4296875 C-37.73119653 202.22442996 -37.7397368 201.01917241 -37.74853587 199.77739191 C-37.82698877 188.40305548 -37.89457846 177.02868531 -37.94144535 165.6541729 C-38.00226415 151.12698974 -38.11263205 136.60202113 -38.28943068 122.07577503 C-38.40967742 111.84879022 -38.4722352 101.62240675 -38.49266809 91.39474118 C-38.50646408 85.29163225 -38.54555949 79.19116589 -38.64708138 73.08883286 C-38.74151179 67.34377708 -38.76419124 61.60277057 -38.73320198 55.8570652 C-38.7341308 53.75634321 -38.76048478 51.65544422 -38.81499863 49.55542946 C-39.22396723 32.91882304 -39.22396723 32.91882304 -33.74633598 26.94290543 C-30.65622535 24.05981818 -27.35545716 21.59556337 -23.8426398 19.25361085 C-21.15407656 17.42448937 -18.72859803 15.3532976 -16.25 13.25 C-14.50085787 11.83227427 -12.75084037 10.41562793 -11 9 C-8.93538602 7.31507004 -6.8740744 5.62615266 -4.8125 3.9375 C-3.20833333 2.625 -1.60416667 1.3125 0 0 Z " fill="#517E65" transform="translate(308,119)"/>
<path d="M0 0 C1.32 0.66 2.64 1.32 4 2 C4 3.32 4 4.64 4 6 C3.67 6.33 3.34 6.66 3 7 C2.88947989 10.17260236 2.84502114 13.32389979 2.84178162 16.49732971 C2.83684364 17.50682157 2.83190566 18.51631343 2.82681805 19.55639595 C2.81135997 22.96671338 2.80306006 26.37701187 2.79467773 29.78735352 C2.78510573 32.22096933 2.77509606 34.65458346 2.76467896 37.0881958 C2.74318178 42.34183257 2.72475182 47.59546661 2.70907402 52.849123 C2.68640107 60.44510951 2.65825473 68.04106789 2.62875474 75.63703059 C2.58104718 87.95974954 2.5377916 100.28247995 2.49731445 112.60522461 C2.4579756 124.57854099 2.41655327 136.55184716 2.37231445 148.52514648 C2.36959018 149.26267167 2.36686591 150.00019685 2.36405908 150.76007129 C2.35037987 154.45986638 2.33665954 158.15966132 2.32291877 161.85945618 C2.2089043 192.57294974 2.1021798 223.28646468 2 254 C-1.40212299 252.38617243 -4.10324519 250.41396234 -7 248 C-7.33 249.98 -7.66 251.96 -8 254 C-8.33 254 -8.66 254 -9 254 C-9.20533412 222.65292385 -9.36459705 191.30602559 -9.45958797 159.95843654 C-9.47084426 156.25720203 -9.48249317 152.55596885 -9.49438477 148.85473633 C-9.49674556 148.11789065 -9.49910635 147.38104498 -9.50153869 146.62187064 C-9.54069588 134.69241764 -9.61165387 122.76335516 -9.69437516 110.8341338 C-9.77855318 98.59270003 -9.82853182 86.35147071 -9.84679645 74.10975939 C-9.85914317 66.55630553 -9.8981284 59.00395543 -9.9712482 51.45084137 C-10.02446872 45.65802743 -10.03009347 39.86591994 -10.01796913 34.07291031 C-10.02044693 31.69725943 -10.03837437 29.3215671 -10.07284927 26.94616508 C-10.11762407 23.70219036 -10.10687766 20.46294034 -10.08229065 17.21885681 C-10.10850622 16.27818247 -10.1347218 15.33750813 -10.16173178 14.36832851 C-10.07613414 10.19179634 -9.87134846 7.91727426 -6.92398632 4.81456673 C-4.68243317 3.057362 -2.43342916 1.47716457 0 0 Z " fill="#517D62" transform="translate(180,119)"/>
<path d="M0 0 C4.14415205 1.70042603 7.24379837 4.6415183 10.5625 7.5625 C11.82206003 8.65723639 13.08248534 9.75097798 14.34375 10.84375 C14.96507812 11.38257812 15.58640625 11.92140625 16.2265625 12.4765625 C18.63774159 14.5478397 21.09467909 16.55921009 23.5625 18.5625 C28.14972032 22.28751151 32.66438155 26.08976586 37.16650391 29.91650391 C40.55973475 32.79557843 43.9827672 35.63211492 47.4375 38.4375 C53.48147246 43.35762985 59.38489018 48.43660128 65.28710938 53.52490234 C68.18676532 56.02201198 71.09351658 58.51084373 74 61 C72.68 62.32 71.36 63.64 70 65 C65.70554982 63.59160505 63.12953521 61.54145224 59.875 58.4375 C55.34694423 54.21212176 50.7028516 50.24076476 45.8828125 46.34765625 C42.71984078 43.77184866 39.60678889 41.14298675 36.5 38.5 C32.55365475 35.14534626 28.58357343 31.82777696 24.5625 28.5625 C20.26901174 25.0712986 16.06307079 21.49092691 11.875 17.875 C6.70705762 13.41487927 1.4597909 9.10206512 -4 5 C-2.68 3.35 -1.36 1.7 0 0 Z " fill="#517E64" transform="translate(176,67)"/>
</svg>
